<svg width="230mm" height="119.518mm" viewBox="0 0 230 119.518" version="1.1" id="svg8">
	<defs id="defs2" />
	<g id="layer1" transform="translate(0,-177.482)">
		<g aria-label="eArsip"
			style="font-style:normal;font-variant:normal;font-weight:normal;font-stretch:normal;font-size:64.42789459px;line-height:1.25;font-family:time;-inkscape-font-specification:time;letter-spacing:0px;word-spacing:0px;fill:#000000;fill-opacity:1;stroke:none;stroke-width:1.61069739"
			id="text817" transform="matrix(1.6312594,0,0,1.6312594,-51.164614,-51.436853)" fill="currentColor">
			<path
				d="m 46.078396,183.05324 q 0.450996,2.19055 -0.708707,4.44552 -1.095274,2.25498 -2.899255,3.9301 -1.803981,1.6107 -3.865674,2.25498 -1.997264,0.64428 -3.221394,-0.32214 0,0.451 0,0.83756 0.06443,0.38657 0.193283,0.77314 0.386568,1.41741 1.159703,1.93283 0.773134,0.451 1.739553,0.451 1.030846,-0.0644 2.061692,-0.51542 1.030847,-0.451 1.54627,-0.90199 1.22413,-1.03085 2.383832,-2.38384 1.22413,-1.41741 2.190548,-2.83482 1.030847,-1.48185 1.803981,-2.7704 0.837563,-1.35299 1.352986,-2.25498 0.32214,-0.45099 0.837563,-0.0644 0.515423,0.38657 0.90199,1.28856 0.386568,0.83756 0.450996,1.93284 0.06443,1.09527 -0.515424,2.06169 -1.030846,1.54627 -2.383832,3.35025 -1.288558,1.80398 -2.834827,3.41468 -1.481842,1.54627 -3.221395,2.64154 -1.675125,1.03085 -3.479106,1.03085 -3.092539,0 -5.025376,-1.6107 -1.932837,-1.6107 -2.770399,-4.50995 -0.708707,-2.31941 -0.193284,-4.63881 0.515423,-2.3194 1.610697,-4.25224 1.030847,-1.93284 2.254977,-3.35025 1.22413,-1.48184 1.997264,-2.06169 0.966419,-0.70871 1.803981,-1.22413 0.901991,-0.57985 1.997265,-0.57985 0.579851,0 1.288558,0.12885 0.773135,0.12886 1.481842,0.57985 0.708706,0.451 1.22413,1.22413 0.579851,0.77314 0.837562,1.99727 z m -3.607962,-0.25771 q -0.322139,0 -1.030846,0.57985 -0.644279,0.51542 -1.481842,1.41741 -0.837562,0.90199 -1.739553,2.12612 -0.90199,1.1597 -1.546269,2.44826 0.322139,0.51542 0.773134,0.51542 0.708707,0 1.803981,-1.03084 1.159703,-1.09528 2.190549,-2.38383 1.095274,-1.28856 1.417414,-2.44826 0.386567,-1.15971 -0.386568,-1.22413 z"
				style="font-style:normal;font-variant:normal;font-weight:normal;font-stretch:normal;font-family:'Claudia Personal Use';-inkscape-font-specification:'Claudia Personal Use';stroke-width:1.61069739"
				id="path819" />
			<path
				d="m 49.235363,194.32812 q -0.579851,0.32214 -0.90199,-0.51542 -0.386568,-0.83757 -0.450996,-1.99727 -0.128855,-1.1597 0.128856,-2.19055 0.193284,-1.03084 0.708707,-1.03084 1.675125,-0.57986 4.445525,-1.28856 2.770399,-0.77314 6.442789,-1.67513 1.54627,-4.89652 3.67239,-10.11518 2.190549,-5.28308 4.767664,-10.24403 2.577116,-5.02538 5.605227,-9.53533 3.028111,-4.50995 6.313934,-7.8602 3.35025,-3.41468 6.893785,-5.41195 3.607962,-2.06169 7.409207,-2.12612 2.577116,-0.0644 4.509953,0.70871 1.997266,0.77313 3.414676,2.19055 1.48184,1.41741 2.38383,3.35025 0.902,1.93284 1.41742,4.18781 0.90199,4.25224 0.51542,9.4709 -0.38657,5.15423 -1.6107,10.69503 -1.1597,5.47637 -2.96368,10.95274 -1.73955,5.41195 -3.607961,10.11518 -1.803981,4.70324 -3.479107,8.3112 -1.610697,3.60796 -2.641543,5.41195 -0.579851,1.09527 -1.417414,0.77313 -0.837563,-0.25771 -1.546269,-1.28856 -0.644279,-1.03084 -1.030847,-2.38383 -0.322139,-1.35299 0,-2.38383 0.193284,-0.70871 0.837563,-2.12612 0.644279,-1.41742 1.481842,-3.28582 0.90199,-1.93284 1.932836,-4.31667 1.030847,-2.38384 2.061693,-5.02538 -9.406473,0.83756 -16.944536,2.19055 -7.538064,1.28856 -13.401002,2.64154 -1.54627,4.44553 -2.705972,8.44006 -1.159702,3.9301 -1.868409,7.21592 -0.257711,0.64428 -0.90199,0.0644 -0.644279,-0.57985 -1.288558,-1.80398 -0.644279,-1.22413 -1.030847,-2.83483 -0.386567,-1.6107 -0.128855,-3.09254 0.257711,-1.48184 0.579851,-3.02811 0.322139,-1.6107 0.837562,-3.35025 -2.834827,0.70871 -4.960948,1.28856 -2.061692,0.57985 -3.479106,0.90199 z M 96.074442,145.5562 q -2.641543,-0.12885 -5.347515,1.41742 -2.705971,1.48184 -5.411943,4.25224 -2.641544,2.70597 -5.218659,6.44279 -2.577116,3.67239 -5.025376,8.05348 -2.383832,4.31667 -4.574381,9.08434 -2.12612,4.70323 -3.994529,9.40647 6.12065,-1.1597 13.594286,-2.19055 7.538063,-1.03085 16.300257,-1.54627 0.06443,-0.19328 0.06443,-0.38657 0.06443,-0.25771 0.193284,-0.45099 1.159702,-3.41468 2.12612,-7.40921 1.030846,-4.05896 1.739554,-8.05349 0.7087,-3.99453 0.96642,-7.53806 0.25771,-3.60796 -0.0644,-6.05622 -0.32214,-2.38383 -1.868409,-3.60796 -1.54627,-1.28856 -3.479107,-1.41742 z"
				style="font-style:normal;font-variant:normal;font-weight:normal;font-stretch:normal;font-family:'Claudia Personal Use';-inkscape-font-specification:'Claudia Personal Use';stroke-width:1.61069739"
				id="path821" />
			<path
				d="m 112.06363,196.38981 q 1.22413,-0.96642 2.38384,-2.44826 1.22413,-1.48184 2.19054,-3.02811 1.03085,-1.54627 1.86841,-2.89926 0.83757,-1.41741 1.41742,-2.3194 0.25771,-0.45099 0.77313,-0.0644 0.51542,0.38657 0.90199,1.28856 0.38657,0.83756 0.451,1.93284 0.0644,1.09527 -0.51543,2.06169 -0.7087,1.09527 -1.54627,2.44826 -0.83756,1.35299 -1.80398,2.64154 -0.96642,1.28856 -2.06169,2.44826 -1.03085,1.15971 -2.25498,1.93284 -1.03084,0.77314 -2.19054,0.90199 -1.09528,0.19328 -2.12612,-0.25771 -0.96642,-0.51542 -1.73956,-1.6107 -0.77313,-1.1597 -1.03084,-3.02811 -0.19329,-1.09527 0.0644,-2.3194 0.32214,-1.22413 0.83757,-2.38384 0.51542,-1.22413 1.1597,-2.3194 0.64428,-1.1597 1.28856,-1.99726 0.57985,-0.83757 0.38656,-1.41742 -0.12885,-0.57985 -0.64428,-0.77313 -0.51542,-0.25771 -1.1597,-0.0644 -0.57985,0.19328 -0.96642,0.83756 l -3.35025,5.41195 q -0.32214,0.51542 -0.77313,0 -0.38657,-0.51543 -0.70871,-1.48185 -0.32214,-0.96641 -0.32214,-2.12612 -0.0644,-1.1597 0.38657,-1.93283 l 2.83483,-4.8321 q 0.7087,-1.41741 1.22413,-1.48184 0.57985,-0.12885 0.96642,0.32214 0.45099,0.451 0.83756,1.09528 0.45099,0.57985 0.83756,0.51542 0.77314,-0.0644 1.67513,0.0644 0.90199,0.0644 1.73955,0.38656 0.90199,0.32214 1.6107,1.03085 0.7087,0.64428 1.03084,1.73955 0.19329,0.77314 0,1.6107 -0.12885,0.83756 -0.57985,1.73955 -0.38657,0.83757 -0.96642,1.67513 -0.51542,0.83756 -1.03084,1.6107 -0.64428,0.90199 -1.22413,1.99726 -0.57985,1.03085 -0.90199,1.86841 -0.25771,0.83756 -0.0644,1.22413 0.19328,0.38657 1.09527,0 z"
				style="font-style:normal;font-variant:normal;font-weight:normal;font-stretch:normal;font-family:'Claudia Personal Use';-inkscape-font-specification:'Claudia Personal Use';stroke-width:1.61069739"
				id="path823" />
			<path
				d="m 126.86695,195.61668 q 1.09527,-0.96642 2.25498,-2.31941 1.22413,-1.41741 2.25497,-2.83483 1.09528,-1.41741 1.93284,-2.70597 0.90199,-1.28855 1.41741,-2.06169 0.32214,-0.45099 0.83756,-0.0644 0.51543,0.38657 0.902,1.28856 0.38656,0.83756 0.45099,1.93284 0.0644,1.09527 -0.51542,2.06169 -1.09528,1.73955 -2.83483,3.67239 -1.67513,1.93284 -3.73682,3.54353 -1.99726,1.54627 -4.25224,2.51269 -2.19055,0.96642 -4.31667,0.77314 -1.86841,-0.0644 -3.15696,-0.96642 -1.28856,-0.90199 -1.99727,-2.12612 -0.70871,-1.28856 -0.90199,-2.64155 -0.19328,-1.35298 0.0644,-2.25497 0.38657,-1.22413 1.1597,-1.6107 0.70871,-0.45099 1.41741,-0.38657 0.70871,0 1.09528,0.451 0.38657,0.38657 0.12885,0.90199 -0.45099,0.70871 -0.45099,1.54627 0,0.83756 0.32214,1.54627 0.25771,0.64428 0.7087,1.09527 0.451,0.38657 0.96642,0.32214 1.09528,-0.12885 1.67513,-0.90199 0.57985,-0.77313 0.83756,-1.93284 0.32214,-1.22413 0.451,-2.64154 0.12885,-1.41741 0.32214,-2.83483 0.25771,-1.41741 0.7087,-2.70597 0.51543,-1.28856 1.48184,-2.12612 -1.54627,1.28856 -2.70597,3.41468 -1.09527,2.06169 -2.3194,3.80125 -0.38657,0.51542 -0.83756,0 -0.38657,-0.51543 -0.64428,-1.41742 -0.32214,-0.96642 -0.32214,-2.06169 -0.0644,-1.09528 0.38656,-1.86841 1.67513,-3.09254 3.86568,-4.96095 2.25497,-1.86841 4.57438,-1.80398 0.96642,0 1.67512,0.32214 0.77314,0.25771 1.15971,0.64428 0.45099,0.38657 0.57985,0.77313 0.19328,0.38657 0,0.57986 -1.54627,1.54626 -2.44826,3.86567 -0.83757,2.3194 -1.28856,4.50995 -0.451,2.19055 -0.64428,3.80125 -0.19328,1.61069 -0.25771,1.73955 z"
				style="font-style:normal;font-variant:normal;font-weight:normal;font-stretch:normal;font-family:'Claudia Personal Use';-inkscape-font-specification:'Claudia Personal Use';stroke-width:1.61069739"
				id="path825" />
			<path
				d="m 142.67897,198.38708 q -1.6107,1.48184 -3.35025,2.19054 -1.73956,0.64428 -2.89926,0.64428 -3.54353,0 -4.63881,-3.73681 -0.51542,-1.73956 0,-3.99453 0.451,-2.25498 1.41742,-4.50996 0.96642,-2.3194 2.12612,-4.44552 1.22413,-2.12612 2.06169,-3.60796 0.83756,-1.35299 2.7704,-1.03085 0.64428,0.12886 1.09527,0.38657 0.451,0.19328 0.57986,0.57985 0.19328,0.70871 -0.25772,1.54627 -0.45099,0.77313 -1.03084,1.86841 -0.451,0.77313 -1.1597,2.19055 -0.70871,1.41741 -1.41742,2.96368 -0.7087,1.54627 -1.35298,2.96368 -0.57985,1.35299 -0.83757,2.12612 -0.32214,0.90199 -0.12885,1.6107 0.19328,0.64428 0.77313,0.77313 0.64428,0.12886 1.67513,-0.38656 1.09527,-0.57985 2.44826,-2.0617 1.03084,-1.03084 1.93283,-2.25497 0.902,-1.28856 1.6107,-2.51269 0.77314,-1.22413 1.35299,-2.25498 0.64428,-1.03084 1.03084,-1.73955 0.32214,-0.45099 0.83757,-0.0644 0.51542,0.38657 0.90199,1.28856 0.38656,0.83756 0.45099,1.93284 0.0644,1.09527 -0.51542,2.06169 -1.09527,1.73955 -2.44826,3.80125 -1.35299,1.99726 -3.02811,3.67239 z m -2.12612,-25.96445 q 0.51542,-1.35298 1.54627,-2.12612 1.09527,-0.77313 2.12612,-0.51542 1.03084,0.32214 1.41741,1.48184 0.451,1.09528 0.0644,2.44826 -0.51542,1.35299 -1.6107,2.12612 -1.03084,0.77314 -2.06169,0.451 -1.09527,-0.25771 -1.54627,-1.41742 -0.38657,-1.1597 0.0644,-2.44826 z"
				style="font-style:normal;font-variant:normal;font-weight:normal;font-stretch:normal;font-family:'Claudia Personal Use';-inkscape-font-specification:'Claudia Personal Use';stroke-width:1.61069739"
				id="path827" />
			<path
				d="m 153.5411,200.89976 q -2.06169,-0.77313 -2.57711,-2.7704 -1.22413,2.44826 -2.25498,4.44553 -0.96642,1.99726 -1.86841,3.67239 -0.90199,1.73955 -1.73955,3.22139 -0.90199,1.54627 -1.73956,3.02811 -0.32213,0.64428 -0.96641,0.902 -0.70871,0.32213 -1.80398,0.12885 -0.64428,-0.0644 -1.09528,-0.32214 -0.51542,-0.19328 -0.51542,-0.57985 -0.19329,-0.70871 0.25771,-1.54627 0.38657,-0.83756 0.96642,-1.93284 0.7087,-1.22413 1.54627,-2.7704 0.83756,-1.54626 1.73955,-3.22139 0.83756,-1.67513 1.73955,-3.35025 0.90199,-1.73955 1.73956,-3.28582 0.19328,-0.51543 0.83756,-1.73956 0.70871,-1.28855 1.48184,-2.83482 0,0 0.0644,-0.0644 0.64428,-1.22413 1.22413,-2.44826 0.64428,-1.28856 1.03085,-2.25498 0.45099,-1.03084 0.57985,-1.67512 0.12885,-0.64428 -0.12886,-0.64428 -0.0644,0 -0.57985,0.83756 -0.51542,0.77314 -1.22413,1.86841 -0.64428,1.09527 -1.35299,2.19055 -0.64428,1.09527 -0.96641,1.6107 -0.38657,0.51542 -0.83757,0 -0.45099,-0.57986 -0.7087,-1.54627 -0.32214,-0.96642 -0.32214,-2.0617 -0.0644,-1.1597 0.45099,-1.86841 1.73955,-3.15696 3.02811,-4.89652 1.35299,-1.73955 3.09254,-1.8684 1.54627,-0.12886 2.44826,0.77313 0.90199,0.83756 1.1597,2.44826 0.96642,-1.09527 2.0617,-1.93284 1.09527,-0.90199 2.06169,-1.03084 1.86841,-0.19329 2.96368,0.64428 1.1597,0.77313 1.73956,2.19054 0.57985,1.41742 0.57985,3.15697 0.0644,1.73955 -0.19329,3.35025 -0.45099,2.7704 -1.86841,5.66966 1.22413,-0.32214 2.12612,-1.41742 0.96642,-1.09527 2.0617,-2.7704 0.7087,-1.28855 1.28855,-2.44826 0.64428,-1.22413 1.15971,-2.06169 0.32214,-0.45099 0.83756,-0.0644 0.51542,0.38657 0.90199,1.28856 0.38657,0.83756 0.38657,1.93284 0.0644,1.09527 -0.51543,2.06169 -0.57985,0.90199 -1.09527,1.93284 -0.451,1.03084 -1.22413,1.93283 -1.28856,1.67513 -2.83483,2.44826 -1.48184,0.70871 -2.96368,0.70871 -1.22413,0 -2.25498,-0.19328 -1.67512,2.06169 -3.67239,3.09254 -1.99726,0.96641 -4.25224,0.0644 z m 7.79578,-17.26667 q -0.83757,-0.57985 -1.86841,0 -0.90199,0.96642 -1.28856,1.93283 -0.38657,0.96642 -0.45099,1.93284 0,0.90199 0.19328,1.80398 0.19328,0.83757 0.38657,1.54627 0.19328,0.77314 0.64428,1.41742 0.77313,-1.28856 1.41741,-2.64155 0.64428,-1.41741 0.96642,-2.57711 0.38656,-1.22413 0.38656,-2.12612 0.0644,-0.90199 -0.38656,-1.28856 z m -7.73135,9.72861 q -0.19328,0.57985 -0.25771,1.28856 -0.0644,0.64428 0,1.22413 0.12885,0.51542 0.38657,0.90199 0.25771,0.32214 0.77313,0.25771 0.51542,-0.0644 1.09527,-0.57985 0.64428,-0.51542 1.35299,-1.35299 -1.35299,-1.54627 -2.06169,-4.12338 -0.0644,-0.0644 -0.0644,-0.25771 z"
				style="font-style:normal;font-variant:normal;font-weight:normal;font-stretch:normal;font-family:'Claudia Personal Use';-inkscape-font-specification:'Claudia Personal Use';stroke-width:1.61069739"
				id="path829" />
		</g>
	</g>
</svg>
